<?xml version="1.0"?>
<!DOCTYPE svg PUBLIC "-//W3C//DTD SVG 1.1//EN" "http://www.w3.org/Graphics/SVG/1.1/DTD/svg11.dtd">
<svg version="1.1" id="Layer_1" xmlns="http://www.w3.org/2000/svg" xmlns:xlink="http://www.w3.org/1999/xlink" x="0px" y="0px"
	 width="584.849px" height="370px" viewBox="0 0 584.849 370" enable-background="new 0 0 584.849 370" xml:space="preserve">
<circle fill="#00AA7F" cx="294.83" cy="146.185" r="66.496"/>
<g>
	<path fill="#00AA7F" d="M221.322,284.814h-13.633l-1.663,4.489h-6.983l15.462-39.902l15.518,39.902h-6.983L221.322,284.814z
		 M209.795,279.217h9.421l-4.71-13.467L209.795,279.217z"/>
	<path fill="#00AA7F" d="M244.512,256.439v26.935h4.544v5.93h-15.573v-5.93h4.545v-26.935h-4.323v-5.93h15.13v5.93H244.512z"/>
	<path fill="#00AA7F" d="M275.399,284.814h-13.633l-1.663,4.489h-6.983l15.462-39.902l15.518,39.902h-6.982L275.399,284.814z
		 M263.872,279.217h9.421l-4.711-13.467L263.872,279.217z"/>
	<path fill="#00AA7F" d="M302.817,270.239l16.127,19.064h-8.479l-11.971-14.741l-3.657,4.101v10.641h-6.484V250.51h6.484v19.563
		l15.905-19.563h8.092L302.817,270.239z"/>
	<path fill="#00AA7F" d="M337.523,289.803c-25.604,0-25.549-39.792,0-39.792C362.961,250.011,363.017,289.803,337.523,289.803z
		 M337.523,256.329c-16.737,0-16.793,27.211,0,27.211C354.315,283.54,354.315,256.329,337.523,256.329z"/>
	<path fill="#00AA7F" d="M361.846,278.553h6.483c0.111,3.214,2.771,4.821,5.653,4.821c2.992,0,5.652-1.885,5.652-4.933
		c0-3.27-3.048-5.32-5.652-5.432c-0.333,0-2.993,0-5.819-1.274c-4.046-1.884-6.317-5.32-6.317-9.92
		c0-7.371,5.874-11.86,12.137-11.86c6.705,0,11.859,4.545,11.971,11.14h-6.429c-0.111-3.214-2.604-4.655-5.542-4.655
		c-3.049,0-5.653,1.773-5.653,5.376c0,3.214,2.771,4.933,5.653,4.933c0.277,0,2.992,0,5.764,1.274
		c4.101,1.884,6.317,5.819,6.317,10.419c0,7.426-5.819,11.416-12.081,11.416C367.276,289.691,361.956,285.813,361.846,278.553z"/>
</g>
<path fill="#FFFFFF" d="M294.99,105.558c7.735,0,14.027,6.351,14.027,14.157c0,5.524-3.293,10.748-8.194,12.999l-4.885,2.243
	l1.695,5.102L312.57,185h-35.157l14.936-44.908l1.697-5.103l-4.887-2.244c-4.901-2.25-8.194-7.564-8.194-13.225
	C280.964,111.821,287.256,105.558,294.99,105.558 M294.99,99.558c-11.06,0-20.026,8.901-20.026,19.963
	c0,8.08,4.797,15.513,11.691,18.678L269.094,191h51.793l-17.559-52.834c6.893-3.165,11.69-10.371,11.69-18.451
	C315.018,108.654,306.05,99.558,294.99,99.558L294.99,99.558z"/>
</svg>
